<?xml version="1.0" encoding="UTF-8" standalone="no"?>
<!DOCTYPE svg PUBLIC "-//W3C//DTD SVG 1.1//EN"
 "http://www.w3.org/Graphics/SVG/1.1/DTD/svg11.dtd">
<!-- Generated by graphviz version 9.0.0 (20230911.1827)
 -->
<!-- Pages: 1 -->
<svg width="731pt" height="1027pt"
 viewBox="0.00 0.00 730.50 1026.50" xmlns="http://www.w3.org/2000/svg" xmlns:xlink="http://www.w3.org/1999/xlink">
<g id="graph0" class="graph" transform="scale(1 1) rotate(0) translate(4 1022.5)">
<polygon fill="#ffffff" stroke="none" points="-4,4 -4,-1022.5 726.5,-1022.5 726.5,4 -4,4"/>
<!-- ILI9341 -->
<g id="node1" class="node">
<title>ILI9341</title>
<polygon fill="#ffffff" stroke="black" points="722.5,-798.5 642,-798.5 642,-475 722.5,-475 722.5,-798.5"/>
<polygon fill="none" stroke="black" points="642,-774.75 642,-798.5 722.5,-798.5 722.5,-774.75 642,-774.75"/>
<text text-anchor="start" x="659.75" y="-781.2" font-family="arial" font-size="14.00">ILI9341</text>
<polygon fill="none" stroke="black" points="642,-751 642,-774.75 677,-774.75 677,-751 642,-751"/>
<text text-anchor="start" x="646" y="-757.45" font-family="arial" font-size="14.00">LCD</text>
<polygon fill="none" stroke="black" points="677,-751 677,-774.75 722.5,-774.75 722.5,-751 677,-751"/>
<text text-anchor="start" x="681" y="-757.45" font-family="arial" font-size="14.00">50&#45;pin</text>
<polygon fill="none" stroke="black" points="642,-728 642,-751 672.25,-751 672.25,-728 642,-728"/>
<text text-anchor="start" x="649.62" y="-733.7" font-family="arial" font-size="14.00">10</text>
<polygon fill="none" stroke="black" points="672.25,-728 672.25,-751 722.5,-751 722.5,-728 672.25,-728"/>
<text text-anchor="start" x="679.75" y="-733.7" font-family="arial" font-size="14.00">Reset</text>
<polygon fill="none" stroke="black" points="642,-705 642,-728 672.25,-728 672.25,-705 642,-705"/>
<text text-anchor="start" x="649.62" y="-710.7" font-family="arial" font-size="14.00">25</text>
<polygon fill="none" stroke="black" points="672.25,-705 672.25,-728 722.5,-728 722.5,-705 672.25,-705"/>
<text text-anchor="start" x="688.75" y="-710.7" font-family="arial" font-size="14.00">D0</text>
<polygon fill="none" stroke="black" points="642,-682 642,-705 672.25,-705 672.25,-682 642,-682"/>
<text text-anchor="start" x="649.62" y="-687.7" font-family="arial" font-size="14.00">26</text>
<polygon fill="none" stroke="black" points="672.25,-682 672.25,-705 722.5,-705 722.5,-682 672.25,-682"/>
<text text-anchor="start" x="688.75" y="-687.7" font-family="arial" font-size="14.00">D1</text>
<polygon fill="none" stroke="black" points="642,-659 642,-682 672.25,-682 672.25,-659 642,-659"/>
<text text-anchor="start" x="649.62" y="-664.7" font-family="arial" font-size="14.00">27</text>
<polygon fill="none" stroke="black" points="672.25,-659 672.25,-682 722.5,-682 722.5,-659 672.25,-659"/>
<text text-anchor="start" x="688.75" y="-664.7" font-family="arial" font-size="14.00">D2</text>
<polygon fill="none" stroke="black" points="642,-636 642,-659 672.25,-659 672.25,-636 642,-636"/>
<text text-anchor="start" x="649.62" y="-641.7" font-family="arial" font-size="14.00">28</text>
<polygon fill="none" stroke="black" points="672.25,-636 672.25,-659 722.5,-659 722.5,-636 672.25,-636"/>
<text text-anchor="start" x="688.75" y="-641.7" font-family="arial" font-size="14.00">D3</text>
<polygon fill="none" stroke="black" points="642,-613 642,-636 672.25,-636 672.25,-613 642,-613"/>
<text text-anchor="start" x="649.62" y="-618.7" font-family="arial" font-size="14.00">29</text>
<polygon fill="none" stroke="black" points="672.25,-613 672.25,-636 722.5,-636 722.5,-613 672.25,-613"/>
<text text-anchor="start" x="688.75" y="-618.7" font-family="arial" font-size="14.00">D4</text>
<polygon fill="none" stroke="black" points="642,-590 642,-613 672.25,-613 672.25,-590 642,-590"/>
<text text-anchor="start" x="649.62" y="-595.7" font-family="arial" font-size="14.00">30</text>
<polygon fill="none" stroke="black" points="672.25,-590 672.25,-613 722.5,-613 722.5,-590 672.25,-590"/>
<text text-anchor="start" x="688.75" y="-595.7" font-family="arial" font-size="14.00">D5</text>
<polygon fill="none" stroke="black" points="642,-567 642,-590 672.25,-590 672.25,-567 642,-567"/>
<text text-anchor="start" x="649.62" y="-572.7" font-family="arial" font-size="14.00">31</text>
<polygon fill="none" stroke="black" points="672.25,-567 672.25,-590 722.5,-590 722.5,-567 672.25,-567"/>
<text text-anchor="start" x="688.75" y="-572.7" font-family="arial" font-size="14.00">D6</text>
<polygon fill="none" stroke="black" points="642,-544 642,-567 672.25,-567 672.25,-544 642,-544"/>
<text text-anchor="start" x="649.62" y="-549.7" font-family="arial" font-size="14.00">32</text>
<polygon fill="none" stroke="black" points="672.25,-544 672.25,-567 722.5,-567 722.5,-544 672.25,-544"/>
<text text-anchor="start" x="688.75" y="-549.7" font-family="arial" font-size="14.00">D7</text>
<polygon fill="none" stroke="black" points="642,-521 642,-544 672.25,-544 672.25,-521 642,-521"/>
<text text-anchor="start" x="649.62" y="-526.7" font-family="arial" font-size="14.00">36</text>
<polygon fill="none" stroke="black" points="672.25,-521 672.25,-544 722.5,-544 722.5,-521 672.25,-521"/>
<text text-anchor="start" x="681.25" y="-526.7" font-family="arial" font-size="14.00">WRX</text>
<polygon fill="none" stroke="black" points="642,-498 642,-521 672.25,-521 672.25,-498 642,-498"/>
<text text-anchor="start" x="649.62" y="-503.7" font-family="arial" font-size="14.00">37</text>
<polygon fill="none" stroke="black" points="672.25,-498 672.25,-521 722.5,-521 722.5,-498 672.25,-498"/>
<text text-anchor="start" x="681.25" y="-503.7" font-family="arial" font-size="14.00">D/CX</text>
<polygon fill="none" stroke="black" points="642,-475 642,-498 672.25,-498 672.25,-475 642,-475"/>
<text text-anchor="start" x="649.62" y="-480.7" font-family="arial" font-size="14.00">50</text>
<polygon fill="none" stroke="black" points="672.25,-475 672.25,-498 722.5,-498 722.5,-475 672.25,-475"/>
<text text-anchor="start" x="682" y="-480.7" font-family="arial" font-size="14.00">GND</text>
</g>
<!-- PicoPI -->
<g id="node2" class="node">
<title>PicoPI</title>
<polygon fill="#ffffff" stroke="black" points="103,-967.5 0,-967.5 0,0 103,0 103,-967.5"/>
<polygon fill="none" stroke="black" points="0,-943.75 0,-967.5 103,-967.5 103,-943.75 0,-943.75"/>
<text text-anchor="start" x="32" y="-950.2" font-family="arial" font-size="14.00">PicoPI</text>
<polygon fill="none" stroke="black" points="0,-920 0,-943.75 48.5,-943.75 48.5,-920 0,-920"/>
<text text-anchor="start" x="8.5" y="-926.45" font-family="arial" font-size="14.00">MCU</text>
<polygon fill="none" stroke="black" points="48.5,-920 48.5,-943.75 103,-943.75 103,-920 48.5,-920"/>
<text text-anchor="start" x="57" y="-926.45" font-family="arial" font-size="14.00">40&#45;pin</text>
<polygon fill="none" stroke="black" points="0,-897 0,-920 80,-920 80,-897 0,-897"/>
<text text-anchor="start" x="18.62" y="-902.7" font-family="arial" font-size="14.00">GPIO0</text>
<polygon fill="none" stroke="black" points="80,-897 80,-920 103,-920 103,-897 80,-897"/>
<text text-anchor="start" x="87.75" y="-902.7" font-family="arial" font-size="14.00">1</text>
<polygon fill="none" stroke="black" points="0,-874 0,-897 80,-897 80,-874 0,-874"/>
<text text-anchor="start" x="18.62" y="-879.7" font-family="arial" font-size="14.00">GPIO1</text>
<polygon fill="none" stroke="black" points="80,-874 80,-897 103,-897 103,-874 80,-874"/>
<text text-anchor="start" x="87.75" y="-879.7" font-family="arial" font-size="14.00">2</text>
<polygon fill="none" stroke="black" points="0,-851 0,-874 80,-874 80,-851 0,-851"/>
<text text-anchor="start" x="24.62" y="-856.7" font-family="arial" font-size="14.00">GND</text>
<polygon fill="none" stroke="black" points="80,-851 80,-874 103,-874 103,-851 80,-851"/>
<text text-anchor="start" x="87.75" y="-856.7" font-family="arial" font-size="14.00">3</text>
<polygon fill="none" stroke="black" points="0,-828 0,-851 80,-851 80,-828 0,-828"/>
<text text-anchor="start" x="18.62" y="-833.7" font-family="arial" font-size="14.00">GPIO2</text>
<polygon fill="none" stroke="black" points="80,-828 80,-851 103,-851 103,-828 80,-828"/>
<text text-anchor="start" x="87.75" y="-833.7" font-family="arial" font-size="14.00">4</text>
<polygon fill="none" stroke="black" points="0,-805 0,-828 80,-828 80,-805 0,-805"/>
<text text-anchor="start" x="18.62" y="-810.7" font-family="arial" font-size="14.00">GPIO3</text>
<polygon fill="none" stroke="black" points="80,-805 80,-828 103,-828 103,-805 80,-805"/>
<text text-anchor="start" x="87.75" y="-810.7" font-family="arial" font-size="14.00">5</text>
<polygon fill="none" stroke="black" points="0,-782 0,-805 80,-805 80,-782 0,-782"/>
<text text-anchor="start" x="18.62" y="-787.7" font-family="arial" font-size="14.00">GPIO4</text>
<polygon fill="none" stroke="black" points="80,-782 80,-805 103,-805 103,-782 80,-782"/>
<text text-anchor="start" x="87.75" y="-787.7" font-family="arial" font-size="14.00">6</text>
<polygon fill="none" stroke="black" points="0,-759 0,-782 80,-782 80,-759 0,-759"/>
<text text-anchor="start" x="18.62" y="-764.7" font-family="arial" font-size="14.00">GPIO5</text>
<polygon fill="none" stroke="black" points="80,-759 80,-782 103,-782 103,-759 80,-759"/>
<text text-anchor="start" x="87.75" y="-764.7" font-family="arial" font-size="14.00">7</text>
<polygon fill="none" stroke="black" points="0,-736 0,-759 80,-759 80,-736 0,-736"/>
<text text-anchor="start" x="24.62" y="-741.7" font-family="arial" font-size="14.00">GND</text>
<polygon fill="none" stroke="black" points="80,-736 80,-759 103,-759 103,-736 80,-736"/>
<text text-anchor="start" x="87.75" y="-741.7" font-family="arial" font-size="14.00">8</text>
<polygon fill="none" stroke="black" points="0,-713 0,-736 80,-736 80,-713 0,-713"/>
<text text-anchor="start" x="18.62" y="-718.7" font-family="arial" font-size="14.00">GPIO6</text>
<polygon fill="none" stroke="black" points="80,-713 80,-736 103,-736 103,-713 80,-713"/>
<text text-anchor="start" x="87.75" y="-718.7" font-family="arial" font-size="14.00">9</text>
<polygon fill="none" stroke="black" points="0,-690 0,-713 80,-713 80,-690 0,-690"/>
<text text-anchor="start" x="18.62" y="-695.7" font-family="arial" font-size="14.00">GPIO7</text>
<polygon fill="none" stroke="black" points="80,-690 80,-713 103,-713 103,-690 80,-690"/>
<text text-anchor="start" x="84" y="-695.7" font-family="arial" font-size="14.00">10</text>
<polygon fill="none" stroke="black" points="0,-667 0,-690 80,-690 80,-667 0,-667"/>
<text text-anchor="start" x="18.62" y="-672.7" font-family="arial" font-size="14.00">GPIO8</text>
<polygon fill="none" stroke="black" points="80,-667 80,-690 103,-690 103,-667 80,-667"/>
<text text-anchor="start" x="84" y="-672.7" font-family="arial" font-size="14.00">11</text>
<polygon fill="none" stroke="black" points="0,-644 0,-667 80,-667 80,-644 0,-644"/>
<text text-anchor="start" x="18.62" y="-649.7" font-family="arial" font-size="14.00">GPIO9</text>
<polygon fill="none" stroke="black" points="80,-644 80,-667 103,-667 103,-644 80,-644"/>
<text text-anchor="start" x="84" y="-649.7" font-family="arial" font-size="14.00">12</text>
<polygon fill="none" stroke="black" points="0,-621 0,-644 80,-644 80,-621 0,-621"/>
<text text-anchor="start" x="24.62" y="-626.7" font-family="arial" font-size="14.00">GND</text>
<polygon fill="none" stroke="black" points="80,-621 80,-644 103,-644 103,-621 80,-621"/>
<text text-anchor="start" x="84" y="-626.7" font-family="arial" font-size="14.00">13</text>
<polygon fill="none" stroke="black" points="0,-598 0,-621 80,-621 80,-598 0,-598"/>
<text text-anchor="start" x="14.88" y="-603.7" font-family="arial" font-size="14.00">GPIO10</text>
<polygon fill="none" stroke="black" points="80,-598 80,-621 103,-621 103,-598 80,-598"/>
<text text-anchor="start" x="84" y="-603.7" font-family="arial" font-size="14.00">14</text>
<polygon fill="none" stroke="black" points="0,-575 0,-598 80,-598 80,-575 0,-575"/>
<text text-anchor="start" x="14.88" y="-580.7" font-family="arial" font-size="14.00">GPIO11</text>
<polygon fill="none" stroke="black" points="80,-575 80,-598 103,-598 103,-575 80,-575"/>
<text text-anchor="start" x="84" y="-580.7" font-family="arial" font-size="14.00">15</text>
<polygon fill="none" stroke="black" points="0,-552 0,-575 80,-575 80,-552 0,-552"/>
<text text-anchor="start" x="14.88" y="-557.7" font-family="arial" font-size="14.00">GPIO12</text>
<polygon fill="none" stroke="black" points="80,-552 80,-575 103,-575 103,-552 80,-552"/>
<text text-anchor="start" x="84" y="-557.7" font-family="arial" font-size="14.00">16</text>
<polygon fill="none" stroke="black" points="0,-529 0,-552 80,-552 80,-529 0,-529"/>
<text text-anchor="start" x="14.88" y="-534.7" font-family="arial" font-size="14.00">GPIO13</text>
<polygon fill="none" stroke="black" points="80,-529 80,-552 103,-552 103,-529 80,-529"/>
<text text-anchor="start" x="84" y="-534.7" font-family="arial" font-size="14.00">17</text>
<polygon fill="none" stroke="black" points="0,-506 0,-529 80,-529 80,-506 0,-506"/>
<text text-anchor="start" x="24.62" y="-511.7" font-family="arial" font-size="14.00">GND</text>
<polygon fill="none" stroke="black" points="80,-506 80,-529 103,-529 103,-506 80,-506"/>
<text text-anchor="start" x="84" y="-511.7" font-family="arial" font-size="14.00">18</text>
<polygon fill="none" stroke="black" points="0,-483 0,-506 80,-506 80,-483 0,-483"/>
<text text-anchor="start" x="14.88" y="-488.7" font-family="arial" font-size="14.00">GPIO14</text>
<polygon fill="none" stroke="black" points="80,-483 80,-506 103,-506 103,-483 80,-483"/>
<text text-anchor="start" x="84" y="-488.7" font-family="arial" font-size="14.00">19</text>
<polygon fill="none" stroke="black" points="0,-460 0,-483 80,-483 80,-460 0,-460"/>
<text text-anchor="start" x="14.88" y="-465.7" font-family="arial" font-size="14.00">GPIO15</text>
<polygon fill="none" stroke="black" points="80,-460 80,-483 103,-483 103,-460 80,-460"/>
<text text-anchor="start" x="84" y="-465.7" font-family="arial" font-size="14.00">20</text>
<polygon fill="none" stroke="black" points="0,-437 0,-460 80,-460 80,-437 0,-437"/>
<text text-anchor="start" x="14.88" y="-442.7" font-family="arial" font-size="14.00">GPIO16</text>
<polygon fill="none" stroke="black" points="80,-437 80,-460 103,-460 103,-437 80,-437"/>
<text text-anchor="start" x="84" y="-442.7" font-family="arial" font-size="14.00">21</text>
<polygon fill="none" stroke="black" points="0,-414 0,-437 80,-437 80,-414 0,-414"/>
<text text-anchor="start" x="14.88" y="-419.7" font-family="arial" font-size="14.00">GPIO17</text>
<polygon fill="none" stroke="black" points="80,-414 80,-437 103,-437 103,-414 80,-414"/>
<text text-anchor="start" x="84" y="-419.7" font-family="arial" font-size="14.00">22</text>
<polygon fill="none" stroke="black" points="0,-391 0,-414 80,-414 80,-391 0,-391"/>
<text text-anchor="start" x="24.62" y="-396.7" font-family="arial" font-size="14.00">GND</text>
<polygon fill="none" stroke="black" points="80,-391 80,-414 103,-414 103,-391 80,-391"/>
<text text-anchor="start" x="84" y="-396.7" font-family="arial" font-size="14.00">23</text>
<polygon fill="none" stroke="black" points="0,-368 0,-391 80,-391 80,-368 0,-368"/>
<text text-anchor="start" x="14.88" y="-373.7" font-family="arial" font-size="14.00">GPIO18</text>
<polygon fill="none" stroke="black" points="80,-368 80,-391 103,-391 103,-368 80,-368"/>
<text text-anchor="start" x="84" y="-373.7" font-family="arial" font-size="14.00">24</text>
<polygon fill="none" stroke="black" points="0,-345 0,-368 80,-368 80,-345 0,-345"/>
<text text-anchor="start" x="14.88" y="-350.7" font-family="arial" font-size="14.00">GPIO19</text>
<polygon fill="none" stroke="black" points="80,-345 80,-368 103,-368 103,-345 80,-345"/>
<text text-anchor="start" x="84" y="-350.7" font-family="arial" font-size="14.00">25</text>
<polygon fill="none" stroke="black" points="0,-322 0,-345 80,-345 80,-322 0,-322"/>
<text text-anchor="start" x="14.88" y="-327.7" font-family="arial" font-size="14.00">GPIO20</text>
<polygon fill="none" stroke="black" points="80,-322 80,-345 103,-345 103,-322 80,-322"/>
<text text-anchor="start" x="84" y="-327.7" font-family="arial" font-size="14.00">26</text>
<polygon fill="none" stroke="black" points="0,-299 0,-322 80,-322 80,-299 0,-299"/>
<text text-anchor="start" x="14.88" y="-304.7" font-family="arial" font-size="14.00">GPIO21</text>
<polygon fill="none" stroke="black" points="80,-299 80,-322 103,-322 103,-299 80,-299"/>
<text text-anchor="start" x="84" y="-304.7" font-family="arial" font-size="14.00">27</text>
<polygon fill="none" stroke="black" points="0,-276 0,-299 80,-299 80,-276 0,-276"/>
<text text-anchor="start" x="24.62" y="-281.7" font-family="arial" font-size="14.00">GND</text>
<polygon fill="none" stroke="black" points="80,-276 80,-299 103,-299 103,-276 80,-276"/>
<text text-anchor="start" x="84" y="-281.7" font-family="arial" font-size="14.00">28</text>
<polygon fill="none" stroke="black" points="0,-253 0,-276 80,-276 80,-253 0,-253"/>
<text text-anchor="start" x="14.88" y="-258.7" font-family="arial" font-size="14.00">GPIO22</text>
<polygon fill="none" stroke="black" points="80,-253 80,-276 103,-276 103,-253 80,-253"/>
<text text-anchor="start" x="84" y="-258.7" font-family="arial" font-size="14.00">29</text>
<polygon fill="none" stroke="black" points="0,-230 0,-253 80,-253 80,-230 0,-230"/>
<text text-anchor="start" x="25.38" y="-235.7" font-family="arial" font-size="14.00">RUN</text>
<polygon fill="none" stroke="black" points="80,-230 80,-253 103,-253 103,-230 80,-230"/>
<text text-anchor="start" x="84" y="-235.7" font-family="arial" font-size="14.00">30</text>
<polygon fill="none" stroke="black" points="0,-207 0,-230 80,-230 80,-207 0,-207"/>
<text text-anchor="start" x="14.88" y="-212.7" font-family="arial" font-size="14.00">GPIO26</text>
<polygon fill="none" stroke="black" points="80,-207 80,-230 103,-230 103,-207 80,-207"/>
<text text-anchor="start" x="84" y="-212.7" font-family="arial" font-size="14.00">31</text>
<polygon fill="none" stroke="black" points="0,-184 0,-207 80,-207 80,-184 0,-184"/>
<text text-anchor="start" x="14.88" y="-189.7" font-family="arial" font-size="14.00">GPIO27</text>
<polygon fill="none" stroke="black" points="80,-184 80,-207 103,-207 103,-184 80,-184"/>
<text text-anchor="start" x="84" y="-189.7" font-family="arial" font-size="14.00">32</text>
<polygon fill="none" stroke="black" points="0,-161 0,-184 80,-184 80,-161 0,-161"/>
<text text-anchor="start" x="24.62" y="-166.7" font-family="arial" font-size="14.00">GND</text>
<polygon fill="none" stroke="black" points="80,-161 80,-184 103,-184 103,-161 80,-161"/>
<text text-anchor="start" x="84" y="-166.7" font-family="arial" font-size="14.00">33</text>
<polygon fill="none" stroke="black" points="0,-138 0,-161 80,-161 80,-138 0,-138"/>
<text text-anchor="start" x="14.88" y="-143.7" font-family="arial" font-size="14.00">GPIO28</text>
<polygon fill="none" stroke="black" points="80,-138 80,-161 103,-161 103,-138 80,-138"/>
<text text-anchor="start" x="84" y="-143.7" font-family="arial" font-size="14.00">34</text>
<polygon fill="none" stroke="black" points="0,-115 0,-138 80,-138 80,-115 0,-115"/>
<text text-anchor="start" x="4" y="-120.7" font-family="arial" font-size="14.00">ADC_VREF</text>
<polygon fill="none" stroke="black" points="80,-115 80,-138 103,-138 103,-115 80,-115"/>
<text text-anchor="start" x="84" y="-120.7" font-family="arial" font-size="14.00">35</text>
<polygon fill="none" stroke="black" points="0,-92 0,-115 80,-115 80,-92 0,-92"/>
<text text-anchor="start" x="28" y="-97.7" font-family="arial" font-size="14.00">3V3</text>
<polygon fill="none" stroke="black" points="80,-92 80,-115 103,-115 103,-92 80,-92"/>
<text text-anchor="start" x="84" y="-97.7" font-family="arial" font-size="14.00">36</text>
<polygon fill="none" stroke="black" points="0,-69 0,-92 80,-92 80,-69 0,-69"/>
<text text-anchor="start" x="14.88" y="-74.7" font-family="arial" font-size="14.00">3V3_EN</text>
<polygon fill="none" stroke="black" points="80,-69 80,-92 103,-92 103,-69 80,-69"/>
<text text-anchor="start" x="84" y="-74.7" font-family="arial" font-size="14.00">37</text>
<polygon fill="none" stroke="black" points="0,-46 0,-69 80,-69 80,-46 0,-46"/>
<text text-anchor="start" x="24.62" y="-51.7" font-family="arial" font-size="14.00">GND</text>
<polygon fill="none" stroke="black" points="80,-46 80,-69 103,-69 103,-46 80,-46"/>
<text text-anchor="start" x="84" y="-51.7" font-family="arial" font-size="14.00">38</text>
<polygon fill="none" stroke="black" points="0,-23 0,-46 80,-46 80,-23 0,-23"/>
<text text-anchor="start" x="22" y="-28.7" font-family="arial" font-size="14.00">VSYS</text>
<polygon fill="none" stroke="black" points="80,-23 80,-46 103,-46 103,-23 80,-23"/>
<text text-anchor="start" x="84" y="-28.7" font-family="arial" font-size="14.00">39</text>
<polygon fill="none" stroke="black" points="0,0 0,-23 80,-23 80,0 0,0"/>
<text text-anchor="start" x="21.62" y="-5.7" font-family="arial" font-size="14.00">VBUS</text>
<polygon fill="none" stroke="black" points="80,0 80,-23 103,-23 103,0 80,0"/>
<text text-anchor="start" x="84" y="-5.7" font-family="arial" font-size="14.00">40</text>
</g>
<!-- LCDControl -->
<g id="node3" class="node">
<title>LCDControl</title>
<polygon fill="#ffffff" stroke="black" points="498,-1018.5 247,-1018.5 247,-833 498,-833 498,-1018.5"/>
<polygon fill="none" stroke="black" points="247,-994.75 247,-1018.5 498,-1018.5 498,-994.75 247,-994.75"/>
<text text-anchor="start" x="337.25" y="-1001.2" font-family="arial" font-size="14.00">LCDControl</text>
<polygon fill="none" stroke="black" points="247,-971 247,-994.75 498,-994.75 498,-971 247,-971"/>
<text text-anchor="start" x="365.38" y="-977.45" font-family="arial" font-size="14.00">4x</text>
<text text-anchor="start" x="295.12" y="-955.7" font-family="arial" font-size="14.00"> </text>
<text text-anchor="start" x="254.62" y="-936.7" font-family="arial" font-size="14.00">PicoPI:3:GND</text>
<text text-anchor="start" x="348.88" y="-936.7" font-family="arial" font-size="14.00"> &#160;&#160;&#160;&#160;1 &#160;&#160;&#160;</text>
<text text-anchor="start" x="395.88" y="-936.7" font-family="arial" font-size="14.00">ILI9341:50:GND</text>
<polygon fill="#000000" stroke="none" points="247,-931 247,-933 498,-933 498,-931 247,-931"/>
<polygon fill="#ffffff" stroke="none" points="247,-929 247,-931 498,-931 498,-929 247,-929"/>
<polygon fill="#000000" stroke="none" points="247,-927 247,-929 498,-929 498,-927 247,-927"/>
<text text-anchor="start" x="248.62" y="-911.7" font-family="arial" font-size="14.00">PicoPI:1:GPIO0</text>
<text text-anchor="start" x="348.88" y="-911.7" font-family="arial" font-size="14.00"> &#160;&#160;&#160;&#160;2 &#160;&#160;&#160;</text>
<text text-anchor="start" x="393.62" y="-911.7" font-family="arial" font-size="14.00">ILI9341:10:Reset</text>
<polygon fill="#000000" stroke="none" points="247,-906 247,-908 498,-908 498,-906 247,-906"/>
<polygon fill="#ffffff" stroke="none" points="247,-904 247,-906 498,-906 498,-904 247,-904"/>
<polygon fill="#000000" stroke="none" points="247,-902 247,-904 498,-904 498,-902 247,-902"/>
<text text-anchor="start" x="248.62" y="-886.7" font-family="arial" font-size="14.00">PicoPI:2:GPIO1</text>
<text text-anchor="start" x="348.88" y="-886.7" font-family="arial" font-size="14.00"> &#160;&#160;&#160;&#160;3 &#160;&#160;&#160;</text>
<text text-anchor="start" x="395.12" y="-886.7" font-family="arial" font-size="14.00">ILI9341:36:WRX</text>
<polygon fill="#000000" stroke="none" points="247,-881 247,-883 498,-883 498,-881 247,-881"/>
<polygon fill="#ffffff" stroke="none" points="247,-879 247,-881 498,-881 498,-879 247,-879"/>
<polygon fill="#000000" stroke="none" points="247,-877 247,-879 498,-879 498,-877 247,-877"/>
<text text-anchor="start" x="248.62" y="-861.7" font-family="arial" font-size="14.00">PicoPI:4:GPIO2</text>
<text text-anchor="start" x="348.88" y="-861.7" font-family="arial" font-size="14.00"> &#160;&#160;&#160;&#160;4 &#160;&#160;&#160;</text>
<text text-anchor="start" x="395.12" y="-861.7" font-family="arial" font-size="14.00">ILI9341:37:D/CX</text>
<polygon fill="#000000" stroke="none" points="247,-856 247,-858 498,-858 498,-856 247,-856"/>
<polygon fill="#ffffff" stroke="none" points="247,-854 247,-856 498,-856 498,-854 247,-854"/>
<polygon fill="#000000" stroke="none" points="247,-852 247,-854 498,-854 498,-852 247,-852"/>
<text text-anchor="start" x="295.12" y="-836.7" font-family="arial" font-size="14.00"> </text>
</g>
<!-- PicoPI&#45;&#45;LCDControl -->
<g id="edge1" class="edge">
<title>PicoPI:e&#45;&#45;LCDControl:w</title>
<path fill="none" stroke="#000000" stroke-width="2" d="M103,-860.75C175.59,-862.67 178.41,-929.67 247,-927.75"/>
<path fill="none" stroke="#ffffff" stroke-width="2" d="M103,-862.75C173.59,-862.75 176.41,-929.75 247,-929.75"/>
<path fill="none" stroke="#000000" stroke-width="2" d="M103,-864.75C171.59,-862.83 174.41,-929.83 247,-931.75"/>
</g>
<!-- PicoPI&#45;&#45;LCDControl -->
<g id="edge3" class="edge">
<title>PicoPI:e&#45;&#45;LCDControl:w</title>
<path fill="none" stroke="#000000" stroke-width="2" d="M103,-906.75C166.54,-906.81 182.49,-902.81 247,-902.75"/>
<path fill="none" stroke="#ffffff" stroke-width="2" d="M103,-908.75C167.02,-908.75 182.98,-904.75 247,-904.75"/>
<path fill="none" stroke="#000000" stroke-width="2" d="M103,-910.75C167.51,-910.69 183.46,-906.69 247,-906.75"/>
</g>
<!-- PicoPI&#45;&#45;LCDControl -->
<g id="edge5" class="edge">
<title>PicoPI:e&#45;&#45;LCDControl:w</title>
<path fill="none" stroke="#000000" stroke-width="2" d="M103,-883.75C166.35,-883.88 182.24,-877.88 247,-877.75"/>
<path fill="none" stroke="#ffffff" stroke-width="2" d="M103,-885.75C167.06,-885.75 182.94,-879.75 247,-879.75"/>
<path fill="none" stroke="#000000" stroke-width="2" d="M103,-887.75C167.76,-887.62 183.65,-881.62 247,-881.75"/>
</g>
<!-- PicoPI&#45;&#45;LCDControl -->
<g id="edge7" class="edge">
<title>PicoPI:e&#45;&#45;LCDControl:w</title>
<path fill="none" stroke="#000000" stroke-width="2" d="M103,-837.75C168.75,-838.32 184.05,-853.32 247,-852.75"/>
<path fill="none" stroke="#ffffff" stroke-width="2" d="M103,-839.75C167.35,-839.75 182.65,-854.75 247,-854.75"/>
<path fill="none" stroke="#000000" stroke-width="2" d="M103,-841.75C165.95,-841.18 181.25,-856.18 247,-856.75"/>
</g>
<!-- LCDData -->
<g id="node4" class="node">
<title>LCDData</title>
<polygon fill="#ffffff" stroke="black" points="496.5,-808.5 248.5,-808.5 248.5,-523 496.5,-523 496.5,-808.5"/>
<polygon fill="none" stroke="black" points="248.5,-784.75 248.5,-808.5 496.5,-808.5 496.5,-784.75 248.5,-784.75"/>
<text text-anchor="start" x="344.75" y="-791.2" font-family="arial" font-size="14.00">LCDData</text>
<polygon fill="none" stroke="black" points="248.5,-761 248.5,-784.75 496.5,-784.75 496.5,-761 248.5,-761"/>
<text text-anchor="start" x="365.38" y="-767.45" font-family="arial" font-size="14.00">8x</text>
<text text-anchor="start" x="304.12" y="-745.7" font-family="arial" font-size="14.00"> </text>
<text text-anchor="start" x="257.62" y="-726.7" font-family="arial" font-size="14.00">PicoPI:9:GPIO6</text>
<text text-anchor="start" x="365.38" y="-726.7" font-family="arial" font-size="14.00"> &#160;&#160;&#160;&#160;1 &#160;&#160;&#160;</text>
<text text-anchor="start" x="410.12" y="-726.7" font-family="arial" font-size="14.00">ILI9341:25:D0</text>
<polygon fill="#000000" stroke="none" points="248.5,-721 248.5,-723 496.5,-723 496.5,-721 248.5,-721"/>
<polygon fill="#ffffff" stroke="none" points="248.5,-719 248.5,-721 496.5,-721 496.5,-719 248.5,-719"/>
<polygon fill="#000000" stroke="none" points="248.5,-717 248.5,-719 496.5,-719 496.5,-717 248.5,-717"/>
<text text-anchor="start" x="253.88" y="-701.7" font-family="arial" font-size="14.00">PicoPI:10:GPIO7</text>
<text text-anchor="start" x="365.38" y="-701.7" font-family="arial" font-size="14.00"> &#160;&#160;&#160;&#160;2 &#160;&#160;&#160;</text>
<text text-anchor="start" x="410.12" y="-701.7" font-family="arial" font-size="14.00">ILI9341:26:D1</text>
<polygon fill="#000000" stroke="none" points="248.5,-696 248.5,-698 496.5,-698 496.5,-696 248.5,-696"/>
<polygon fill="#ffffff" stroke="none" points="248.5,-694 248.5,-696 496.5,-696 496.5,-694 248.5,-694"/>
<polygon fill="#000000" stroke="none" points="248.5,-692 248.5,-694 496.5,-694 496.5,-692 248.5,-692"/>
<text text-anchor="start" x="253.88" y="-676.7" font-family="arial" font-size="14.00">PicoPI:11:GPIO8</text>
<text text-anchor="start" x="365.38" y="-676.7" font-family="arial" font-size="14.00"> &#160;&#160;&#160;&#160;3 &#160;&#160;&#160;</text>
<text text-anchor="start" x="410.12" y="-676.7" font-family="arial" font-size="14.00">ILI9341:27:D2</text>
<polygon fill="#000000" stroke="none" points="248.5,-671 248.5,-673 496.5,-673 496.5,-671 248.5,-671"/>
<polygon fill="#ffffff" stroke="none" points="248.5,-669 248.5,-671 496.5,-671 496.5,-669 248.5,-669"/>
<polygon fill="#000000" stroke="none" points="248.5,-667 248.5,-669 496.5,-669 496.5,-667 248.5,-667"/>
<text text-anchor="start" x="253.88" y="-651.7" font-family="arial" font-size="14.00">PicoPI:12:GPIO9</text>
<text text-anchor="start" x="365.38" y="-651.7" font-family="arial" font-size="14.00"> &#160;&#160;&#160;&#160;4 &#160;&#160;&#160;</text>
<text text-anchor="start" x="410.12" y="-651.7" font-family="arial" font-size="14.00">ILI9341:28:D3</text>
<polygon fill="#000000" stroke="none" points="248.5,-646 248.5,-648 496.5,-648 496.5,-646 248.5,-646"/>
<polygon fill="#ffffff" stroke="none" points="248.5,-644 248.5,-646 496.5,-646 496.5,-644 248.5,-644"/>
<polygon fill="#000000" stroke="none" points="248.5,-642 248.5,-644 496.5,-644 496.5,-642 248.5,-642"/>
<text text-anchor="start" x="250.12" y="-626.7" font-family="arial" font-size="14.00">PicoPI:14:GPIO10</text>
<text text-anchor="start" x="365.38" y="-626.7" font-family="arial" font-size="14.00"> &#160;&#160;&#160;&#160;5 &#160;&#160;&#160;</text>
<text text-anchor="start" x="410.12" y="-626.7" font-family="arial" font-size="14.00">ILI9341:29:D4</text>
<polygon fill="#000000" stroke="none" points="248.5,-621 248.5,-623 496.5,-623 496.5,-621 248.5,-621"/>
<polygon fill="#ffffff" stroke="none" points="248.5,-619 248.5,-621 496.5,-621 496.5,-619 248.5,-619"/>
<polygon fill="#000000" stroke="none" points="248.5,-617 248.5,-619 496.5,-619 496.5,-617 248.5,-617"/>
<text text-anchor="start" x="250.12" y="-601.7" font-family="arial" font-size="14.00">PicoPI:15:GPIO11</text>
<text text-anchor="start" x="365.38" y="-601.7" font-family="arial" font-size="14.00"> &#160;&#160;&#160;&#160;6 &#160;&#160;&#160;</text>
<text text-anchor="start" x="410.12" y="-601.7" font-family="arial" font-size="14.00">ILI9341:30:D5</text>
<polygon fill="#000000" stroke="none" points="248.5,-596 248.5,-598 496.5,-598 496.5,-596 248.5,-596"/>
<polygon fill="#ffffff" stroke="none" points="248.5,-594 248.5,-596 496.5,-596 496.5,-594 248.5,-594"/>
<polygon fill="#000000" stroke="none" points="248.5,-592 248.5,-594 496.5,-594 496.5,-592 248.5,-592"/>
<text text-anchor="start" x="250.12" y="-576.7" font-family="arial" font-size="14.00">PicoPI:16:GPIO12</text>
<text text-anchor="start" x="365.38" y="-576.7" font-family="arial" font-size="14.00"> &#160;&#160;&#160;&#160;7 &#160;&#160;&#160;</text>
<text text-anchor="start" x="410.12" y="-576.7" font-family="arial" font-size="14.00">ILI9341:31:D6</text>
<polygon fill="#000000" stroke="none" points="248.5,-571 248.5,-573 496.5,-573 496.5,-571 248.5,-571"/>
<polygon fill="#ffffff" stroke="none" points="248.5,-569 248.5,-571 496.5,-571 496.5,-569 248.5,-569"/>
<polygon fill="#000000" stroke="none" points="248.5,-567 248.5,-569 496.5,-569 496.5,-567 248.5,-567"/>
<text text-anchor="start" x="250.12" y="-551.7" font-family="arial" font-size="14.00">PicoPI:17:GPIO13</text>
<text text-anchor="start" x="365.38" y="-551.7" font-family="arial" font-size="14.00"> &#160;&#160;&#160;&#160;8 &#160;&#160;&#160;</text>
<text text-anchor="start" x="410.12" y="-551.7" font-family="arial" font-size="14.00">ILI9341:32:D7</text>
<polygon fill="#000000" stroke="none" points="248.5,-546 248.5,-548 496.5,-548 496.5,-546 248.5,-546"/>
<polygon fill="#ffffff" stroke="none" points="248.5,-544 248.5,-546 496.5,-546 496.5,-544 248.5,-544"/>
<polygon fill="#000000" stroke="none" points="248.5,-542 248.5,-544 496.5,-544 496.5,-542 248.5,-542"/>
<text text-anchor="start" x="304.12" y="-526.7" font-family="arial" font-size="14.00"> </text>
</g>
<!-- PicoPI&#45;&#45;LCDData -->
<g id="edge9" class="edge">
<title>PicoPI:e&#45;&#45;LCDData:w</title>
<path fill="none" stroke="#000000" stroke-width="2" d="M103,-722.75C166.66,-722.84 182.64,-717.84 247.5,-717.75"/>
<path fill="none" stroke="#ffffff" stroke-width="2" d="M103,-724.75C167.26,-724.75 183.24,-719.75 247.5,-719.75"/>
<path fill="none" stroke="#000000" stroke-width="2" d="M103,-726.75C167.86,-726.66 183.84,-721.66 247.5,-721.75"/>
</g>
<!-- PicoPI&#45;&#45;LCDData -->
<g id="edge11" class="edge">
<title>PicoPI:e&#45;&#45;LCDData:w</title>
<path fill="none" stroke="#000000" stroke-width="2" d="M103,-699.75C166.49,-699.92 182.4,-692.92 247.5,-692.75"/>
<path fill="none" stroke="#ffffff" stroke-width="2" d="M103,-701.75C167.3,-701.75 183.2,-694.75 247.5,-694.75"/>
<path fill="none" stroke="#000000" stroke-width="2" d="M103,-703.75C168.1,-703.58 184.01,-696.58 247.5,-696.75"/>
</g>
<!-- PicoPI&#45;&#45;LCDData -->
<g id="edge13" class="edge">
<title>PicoPI:e&#45;&#45;LCDData:w</title>
<path fill="none" stroke="#000000" stroke-width="2" d="M103,-676.75C166.36,-677.01 182.16,-668.01 247.5,-667.75"/>
<path fill="none" stroke="#ffffff" stroke-width="2" d="M103,-678.75C167.35,-678.75 183.15,-669.75 247.5,-669.75"/>
<path fill="none" stroke="#000000" stroke-width="2" d="M103,-680.75C168.34,-680.49 184.14,-671.49 247.5,-671.75"/>
</g>
<!-- PicoPI&#45;&#45;LCDData -->
<g id="edge15" class="edge">
<title>PicoPI:e&#45;&#45;LCDData:w</title>
<path fill="none" stroke="#000000" stroke-width="2" d="M103,-653.75C166.26,-654.11 181.94,-643.11 247.5,-642.75"/>
<path fill="none" stroke="#ffffff" stroke-width="2" d="M103,-655.75C167.41,-655.75 183.09,-644.75 247.5,-644.75"/>
<path fill="none" stroke="#000000" stroke-width="2" d="M103,-657.75C168.56,-657.39 184.24,-646.39 247.5,-646.75"/>
</g>
<!-- PicoPI&#45;&#45;LCDData -->
<g id="edge17" class="edge">
<title>PicoPI:e&#45;&#45;LCDData:w</title>
<path fill="none" stroke="#000000" stroke-width="2" d="M103,-607.75C168.45,-608.06 184.2,-618.06 247.5,-617.75"/>
<path fill="none" stroke="#ffffff" stroke-width="2" d="M103,-609.75C167.38,-609.75 183.12,-619.75 247.5,-619.75"/>
<path fill="none" stroke="#000000" stroke-width="2" d="M103,-611.75C166.3,-611.44 182.05,-621.44 247.5,-621.75"/>
</g>
<!-- PicoPI&#45;&#45;LCDData -->
<g id="edge19" class="edge">
<title>PicoPI:e&#45;&#45;LCDData:w</title>
<path fill="none" stroke="#000000" stroke-width="2" d="M103,-584.75C168.22,-584.96 184.08,-592.96 247.5,-592.75"/>
<path fill="none" stroke="#ffffff" stroke-width="2" d="M103,-586.75C167.32,-586.75 183.18,-594.75 247.5,-594.75"/>
<path fill="none" stroke="#000000" stroke-width="2" d="M103,-588.75C166.42,-588.54 182.28,-596.54 247.5,-596.75"/>
</g>
<!-- PicoPI&#45;&#45;LCDData -->
<g id="edge21" class="edge">
<title>PicoPI:e&#45;&#45;LCDData:w</title>
<path fill="none" stroke="#000000" stroke-width="2" d="M103,-561.75C167.98,-561.88 183.93,-567.88 247.5,-567.75"/>
<path fill="none" stroke="#ffffff" stroke-width="2" d="M103,-563.75C167.28,-563.75 183.22,-569.75 247.5,-569.75"/>
<path fill="none" stroke="#000000" stroke-width="2" d="M103,-565.75C166.57,-565.62 182.52,-571.62 247.5,-571.75"/>
</g>
<!-- PicoPI&#45;&#45;LCDData -->
<g id="edge23" class="edge">
<title>PicoPI:e&#45;&#45;LCDData:w</title>
<path fill="none" stroke="#000000" stroke-width="2" d="M103,-538.75C167.73,-538.81 183.74,-542.81 247.5,-542.75"/>
<path fill="none" stroke="#ffffff" stroke-width="2" d="M103,-540.75C167.25,-540.75 183.25,-544.75 247.5,-544.75"/>
<path fill="none" stroke="#000000" stroke-width="2" d="M103,-542.75C166.76,-542.69 182.77,-546.69 247.5,-546.75"/>
</g>
<!-- LCDControl&#45;&#45;ILI9341 -->
<g id="edge2" class="edge">
<title>LCDControl:e&#45;&#45;ILI9341:w</title>
<path fill="none" stroke="#000000" stroke-width="2" d="M498,-927.75C703.32,-930.79 433.26,-487.79 642,-484.75"/>
<path fill="none" stroke="#ffffff" stroke-width="2" d="M498,-929.75C705.03,-929.75 434.97,-486.75 642,-486.75"/>
<path fill="none" stroke="#000000" stroke-width="2" d="M498,-931.75C706.74,-928.71 436.68,-485.71 642,-488.75"/>
</g>
<!-- LCDControl&#45;&#45;ILI9341 -->
<g id="edge4" class="edge">
<title>LCDControl:e&#45;&#45;ILI9341:w</title>
<path fill="none" stroke="#000000" stroke-width="2" d="M498,-902.75C593.42,-905.34 542.75,-740.34 642,-737.75"/>
<path fill="none" stroke="#ffffff" stroke-width="2" d="M498,-904.75C595.33,-904.75 544.67,-739.75 642,-739.75"/>
<path fill="none" stroke="#000000" stroke-width="2" d="M498,-906.75C597.25,-904.16 546.58,-739.16 642,-741.75"/>
</g>
<!-- LCDControl&#45;&#45;ILI9341 -->
<g id="edge6" class="edge">
<title>LCDControl:e&#45;&#45;ILI9341:w</title>
<path fill="none" stroke="#000000" stroke-width="2" d="M498,-877.75C663.22,-880.71 473.27,-533.71 642,-530.75"/>
<path fill="none" stroke="#ffffff" stroke-width="2" d="M498,-879.75C664.97,-879.75 475.03,-532.75 642,-532.75"/>
<path fill="none" stroke="#000000" stroke-width="2" d="M498,-881.75C666.73,-878.79 476.78,-531.79 642,-534.75"/>
</g>
<!-- LCDControl&#45;&#45;ILI9341 -->
<g id="edge8" class="edge">
<title>LCDControl:e&#45;&#45;ILI9341:w</title>
<path fill="none" stroke="#000000" stroke-width="2" d="M498,-852.75C662.4,-855.71 474.09,-510.71 642,-507.75"/>
<path fill="none" stroke="#ffffff" stroke-width="2" d="M498,-854.75C664.15,-854.75 475.85,-509.75 642,-509.75"/>
<path fill="none" stroke="#000000" stroke-width="2" d="M498,-856.75C665.91,-853.79 477.6,-508.79 642,-511.75"/>
</g>
<!-- LCDData&#45;&#45;ILI9341 -->
<g id="edge10" class="edge">
<title>LCDData:e&#45;&#45;ILI9341:w</title>
<path fill="none" stroke="#000000" stroke-width="2" d="M497.5,-717.75C561.37,-717.78 577.4,-714.78 642,-714.75"/>
<path fill="none" stroke="#ffffff" stroke-width="2" d="M497.5,-719.75C561.74,-719.75 577.76,-716.75 642,-716.75"/>
<path fill="none" stroke="#000000" stroke-width="2" d="M497.5,-721.75C562.1,-721.72 578.13,-718.72 642,-718.75"/>
</g>
<!-- LCDData&#45;&#45;ILI9341 -->
<g id="edge12" class="edge">
<title>LCDData:e&#45;&#45;ILI9341:w</title>
<path fill="none" stroke="#000000" stroke-width="2" d="M497.5,-692.75C561.6,-692.75 577.65,-691.75 642,-691.75"/>
<path fill="none" stroke="#ffffff" stroke-width="2" d="M497.5,-694.75C561.72,-694.75 577.78,-693.75 642,-693.75"/>
<path fill="none" stroke="#000000" stroke-width="2" d="M497.5,-696.75C561.85,-696.75 577.9,-695.75 642,-695.75"/>
</g>
<!-- LCDData&#45;&#45;ILI9341 -->
<g id="edge14" class="edge">
<title>LCDData:e&#45;&#45;ILI9341:w</title>
<path fill="none" stroke="#000000" stroke-width="2" d="M497.5,-667.75C561.85,-667.75 577.9,-668.75 642,-668.75"/>
<path fill="none" stroke="#ffffff" stroke-width="2" d="M497.5,-669.75C561.72,-669.75 577.78,-670.75 642,-670.75"/>
<path fill="none" stroke="#000000" stroke-width="2" d="M497.5,-671.75C561.6,-671.75 577.65,-672.75 642,-672.75"/>
</g>
<!-- LCDData&#45;&#45;ILI9341 -->
<g id="edge16" class="edge">
<title>LCDData:e&#45;&#45;ILI9341:w</title>
<path fill="none" stroke="#000000" stroke-width="2" d="M497.5,-642.75C562.1,-642.78 578.13,-645.78 642,-645.75"/>
<path fill="none" stroke="#ffffff" stroke-width="2" d="M497.5,-644.75C561.74,-644.75 577.76,-647.75 642,-647.75"/>
<path fill="none" stroke="#000000" stroke-width="2" d="M497.5,-646.75C561.37,-646.72 577.4,-649.72 642,-649.75"/>
</g>
<!-- LCDData&#45;&#45;ILI9341 -->
<g id="edge18" class="edge">
<title>LCDData:e&#45;&#45;ILI9341:w</title>
<path fill="none" stroke="#000000" stroke-width="2" d="M497.5,-617.75C562.36,-617.84 578.34,-622.84 642,-622.75"/>
<path fill="none" stroke="#ffffff" stroke-width="2" d="M497.5,-619.75C561.76,-619.75 577.74,-624.75 642,-624.75"/>
<path fill="none" stroke="#000000" stroke-width="2" d="M497.5,-621.75C561.16,-621.66 577.14,-626.66 642,-626.75"/>
</g>
<!-- LCDData&#45;&#45;ILI9341 -->
<g id="edge20" class="edge">
<title>LCDData:e&#45;&#45;ILI9341:w</title>
<path fill="none" stroke="#000000" stroke-width="2" d="M497.5,-592.75C562.6,-592.92 578.51,-599.92 642,-599.75"/>
<path fill="none" stroke="#ffffff" stroke-width="2" d="M497.5,-594.75C561.8,-594.75 577.7,-601.75 642,-601.75"/>
<path fill="none" stroke="#000000" stroke-width="2" d="M497.5,-596.75C560.99,-596.58 576.9,-603.58 642,-603.75"/>
</g>
<!-- LCDData&#45;&#45;ILI9341 -->
<g id="edge22" class="edge">
<title>LCDData:e&#45;&#45;ILI9341:w</title>
<path fill="none" stroke="#000000" stroke-width="2" d="M497.5,-567.75C562.84,-568.01 578.64,-577.01 642,-576.75"/>
<path fill="none" stroke="#ffffff" stroke-width="2" d="M497.5,-569.75C561.85,-569.75 577.65,-578.75 642,-578.75"/>
<path fill="none" stroke="#000000" stroke-width="2" d="M497.5,-571.75C560.86,-571.49 576.66,-580.49 642,-580.75"/>
</g>
<!-- LCDData&#45;&#45;ILI9341 -->
<g id="edge24" class="edge">
<title>LCDData:e&#45;&#45;ILI9341:w</title>
<path fill="none" stroke="#000000" stroke-width="2" d="M497.5,-542.75C563.06,-543.11 578.74,-554.11 642,-553.75"/>
<path fill="none" stroke="#ffffff" stroke-width="2" d="M497.5,-544.75C561.91,-544.75 577.59,-555.75 642,-555.75"/>
<path fill="none" stroke="#000000" stroke-width="2" d="M497.5,-546.75C560.76,-546.39 576.44,-557.39 642,-557.75"/>
</g>
</g>
</svg>
