<?xml version="1.0" encoding="UTF-8" standalone="no"?>
<!DOCTYPE svg PUBLIC "-//W3C//DTD SVG 1.1//EN"
 "http://www.w3.org/Graphics/SVG/1.1/DTD/svg11.dtd">
<!-- Generated by graphviz version 9.0.0 (20230911.1827)
 -->
<!-- Title: foo Pages: 1 -->
<svg width="126pt" height="229pt"
 viewBox="0.00 0.00 126.05 228.75" xmlns="http://www.w3.org/2000/svg" xmlns:xlink="http://www.w3.org/1999/xlink">
<g id="graph0" class="graph" transform="scale(1 1) rotate(0) translate(4 224.75)">
<title>foo</title>
<polygon fill="white" stroke="none" points="-4,4 -4,-224.75 122.05,-224.75 122.05,4 -4,4"/>
<!-- node1 -->
<g id="node1" class="node">
<title>node1</title>
<path fill="none" stroke="black" d="M76.78,-220.75C76.78,-220.75 41.28,-220.75 41.28,-220.75 35.28,-220.75 29.28,-214.75 29.28,-208.75 29.28,-208.75 29.28,-196.75 29.28,-196.75 29.28,-190.75 35.28,-184.75 41.28,-184.75 41.28,-184.75 76.78,-184.75 76.78,-184.75 82.78,-184.75 88.78,-190.75 88.78,-196.75 88.78,-196.75 88.78,-208.75 88.78,-208.75 88.78,-214.75 82.78,-220.75 76.78,-220.75"/>
<text text-anchor="middle" x="59.03" y="-198.07" font-family="Times,serif" font-size="14.00">node1</text>
</g>
<!-- node2 -->
<g id="node2" class="node">
<title>node2</title>
<path fill="yellow" stroke="black" d="M47.55,-145.25C47.55,-145.25 11.48,-134.25 11.48,-134.25 5.74,-132.5 5.74,-129 11.48,-127.25 11.48,-127.25 47.55,-116.25 47.55,-116.25 53.29,-114.5 64.77,-114.5 70.5,-116.25 70.5,-116.25 106.57,-127.25 106.57,-127.25 112.31,-129 112.31,-132.5 106.57,-134.25 106.57,-134.25 70.5,-145.25 70.5,-145.25 64.77,-147 53.29,-147 47.55,-145.25"/>
<text text-anchor="middle" x="59.03" y="-126.08" font-family="Times,serif" font-size="14.00">node2</text>
</g>
<!-- node1&#45;&gt;node2 -->
<g id="edge1" class="edge">
<title>node1&#45;&gt;node2</title>
<path fill="none" stroke="black" d="M59.03,-184.45C59.03,-177.16 59.03,-168.48 59.03,-160.29"/>
<polygon fill="black" stroke="black" points="62.53,-160.37 59.03,-150.37 55.53,-160.37 62.53,-160.37"/>
</g>
<!-- node3 -->
<g id="node3" class="node">
<title>node3</title>
<path fill="none" stroke="black" d="M44.03,-0.5C44.03,-0.5 74.03,-0.5 74.03,-0.5 80.03,-0.5 86.03,-6.5 86.03,-12.5 86.03,-12.5 86.03,-64.25 86.03,-64.25 86.03,-70.25 80.03,-76.25 74.03,-76.25 74.03,-76.25 44.03,-76.25 44.03,-76.25 38.03,-76.25 32.03,-70.25 32.03,-64.25 32.03,-64.25 32.03,-12.5 32.03,-12.5 32.03,-6.5 38.03,-0.5 44.03,-0.5"/>
<text text-anchor="middle" x="59.03" y="-58.95" font-family="Times,serif" font-size="14.00">a</text>
<polyline fill="none" stroke="black" points="32.03,-51 86.03,-51"/>
<text text-anchor="middle" x="59.03" y="-33.7" font-family="Times,serif" font-size="14.00">b</text>
<polyline fill="none" stroke="black" points="32.03,-25.75 86.03,-25.75"/>
<text text-anchor="middle" x="59.03" y="-8.45" font-family="Times,serif" font-size="14.00">c</text>
</g>
<!-- node2&#45;&gt;node3 -->
<g id="edge2" class="edge">
<title>node2&#45;&gt;node3</title>
<path fill="none" stroke="black" d="M59.03,-112.32C59.03,-105.26 59.03,-96.72 59.03,-88.01"/>
<polygon fill="black" stroke="black" points="62.53,-88.09 59.03,-78.09 55.53,-88.09 62.53,-88.09"/>
</g>
</g>
</svg>
